# xmcd
#
# Track frame offsets: 
#        150
#        20033
#        34063
#        52013
#        72357
#        92618
#        110335
#        132297
#        154822
#        169457
#        186524
#        201691
#        220401
#
# Disc length: 3323 seconds
#
# Revision: 2
# Processed by: cddbd v1.5.2PL0 Copyright (c) Steve Scherf et al.
# Submitted via: ExactAudioCopy v0.99pb5
#
DISCID=cc0cf90d
DTITLE=The Mannish Boys - Double Dynamite  disc 2 [Rhthm and Blues Explo
DTITLE=sion]
DYEAR=2012
DGENRE=Blues
TTITLE0=Born Under A Bad Sign
TTITLE1=That Dood It
TTITLE2=You've Got The Power
TTITLE3=Drowning On Dry Land
TTITLE4=Mr. Charles Blues
TTITLE5=Cold Sweat
TTITLE6=Later On
TTITLE7=You Don't Love Me
TTITLE8=Bed For My Soul
TTITLE9=Why Does Everything Happen To Me
TTITLE10=I Woke Up Screaming
TTITLE11=West Helena Blues
TTITLE12=Hittin' The Groove
EXTD=
EXTT0=
EXTT1=
EXTT2=
EXTT3=
EXTT4=
EXTT5=
EXTT6=
EXTT7=
EXTT8=
EXTT9=
EXTT10=
EXTT11=
EXTT12=
PLAYORDER=
